<svg width="25" height="28" viewBox="0 0 25 28" fill="none" xmlns="http://www.w3.org/2000/svg">
<path d="M19.6661 9.06645C19.6661 7.19231 18.9216 5.39493 17.5964 4.06972C16.2712 2.7445 14.4738 2 12.5997 2C10.7255 2 8.92816 2.7445 7.60294 4.06972C6.27773 5.39493 5.53323 7.19231 5.53323 9.06645C5.53323 17.3107 2 19.6661 2 19.6661H23.1994C23.1994 19.6661 19.6661 17.3107 19.6661 9.06645Z" stroke="white" stroke-width="3" stroke-linecap="round" stroke-linejoin="round"/>
<path d="M14.6372 24.3771C14.4301 24.7341 14.1329 25.0303 13.7753 25.2363C13.4177 25.4423 13.0123 25.5507 12.5997 25.5507C12.187 25.5507 11.7816 25.4423 11.424 25.2363C11.0664 25.0303 10.7692 24.7341 10.5622 24.3771" stroke="white" stroke-width="3" stroke-linecap="round" stroke-linejoin="round"/>
</svg>
