<svg width="19" height="19" viewBox="0 0 19 19" fill="none" xmlns="http://www.w3.org/2000/svg">
<path d="M17.8749 0.68632C18.1609 0.972229 18.3216 1.36004 18.3216 1.76443C18.3217 2.16882 18.1611 2.55668 17.8752 2.84267L11.407 9.3126L17.877 15.7807C18.163 16.0667 18.3237 16.4545 18.3237 16.8589C18.3238 17.2632 18.1632 17.6511 17.8773 17.9371C17.5914 18.2231 17.2035 18.3838 16.7992 18.3838C16.3948 18.3839 16.0069 18.2233 15.7209 17.9374L9.25099 11.4692L2.78285 17.9392C2.49694 18.2252 2.10913 18.3859 1.70473 18.3859C1.30034 18.386 0.912489 18.2254 0.6265 17.9395C0.340511 17.6536 0.179812 17.2658 0.179756 16.8614C0.179699 16.457 0.340291 16.0691 0.626201 15.7831L7.09434 9.3132L0.624404 2.84506C0.338415 2.55915 0.177717 2.17134 0.177661 1.76695C0.177604 1.36256 0.338196 0.974704 0.624105 0.688715C0.910015 0.402726 1.29782 0.242028 1.70222 0.241972C2.10661 0.241915 2.49446 0.402506 2.78045 0.688415L9.25039 7.15655L15.7185 0.686619C16.0044 0.40063 16.3922 0.239932 16.7966 0.239876C17.201 0.23982 17.5889 0.40041 17.8749 0.68632Z" fill="white"/>
</svg>
