<?xml version="1.0" standalone="no"?>
<!DOCTYPE svg PUBLIC "-//W3C//DTD SVG 20010904//EN"
 "http://www.w3.org/TR/2001/REC-SVG-20010904/DTD/svg10.dtd">
<svg version="1.0" xmlns="http://www.w3.org/2000/svg"
 width="264.000000pt" height="242.000000pt" viewBox="0 0 264.000000 242.000000"
 preserveAspectRatio="xMidYMid meet">

<g transform="translate(0.000000,242.000000) scale(0.100000,-0.100000)"
fill="#2C2C2C" stroke="none">
<path d="M1156 2400 c-552 -70 -993 -436 -1119 -930 -18 -72 -22 -113 -22
-265 0 -166 2 -188 28 -279 157 -564 702 -937 1332 -913 360 14 673 146 916
387 353 351 444 849 234 1288 -206 430 -649 703 -1165 717 -74 2 -166 0 -204
-5z m-9 -862 l173 -172 173 172 c150 149 178 172 204 172 17 0 39 -3 48 -6 18
-7 45 -55 45 -80 0 -10 -80 -98 -177 -196 l-178 -178 175 -175 c162 -162 174
-177 174 -211 0 -28 -7 -42 -28 -60 -53 -46 -64 -39 -257 152 l-178 177 -157
-162 c-87 -89 -170 -169 -186 -177 -60 -31 -118 7 -118 75 0 32 16 51 172 208
l172 173 -172 173 c-154 156 -172 177 -172 207 0 46 33 80 79 80 32 0 50 -15
208 -172z"/>
</g>
</svg>
