<svg width="35" height="31" viewBox="0 0 35 31" fill="none" xmlns="http://www.w3.org/2000/svg">
<ellipse opacity="0.9" cx="17.5" cy="15.5" rx="17" ry="15.5" fill="white"/>
<path opacity="0.4" d="M23.1561 9.34235C23.3436 9.52986 23.449 9.7842 23.4491 10.0494C23.4491 10.3146 23.3438 10.569 23.1563 10.7566L18.9142 14.9998L23.1575 19.2418C23.345 19.4294 23.4504 19.6837 23.4504 19.9489C23.4505 20.2141 23.3452 20.4685 23.1577 20.6561C22.9701 20.8436 22.7158 20.949 22.4506 20.949C22.1854 20.9491 21.931 20.8438 21.7434 20.6563L17.5002 16.4142L13.2582 20.6574C13.0706 20.845 12.8163 20.9504 12.5511 20.9504C12.2859 20.9505 12.0315 20.8451 11.8439 20.6576C11.6564 20.4701 11.551 20.2158 11.551 19.9506C11.5509 19.6853 11.6562 19.431 11.8437 19.2434L16.0858 15.0002L11.8426 10.7581C11.655 10.5706 11.5496 10.3163 11.5496 10.0511C11.5495 9.78585 11.6549 9.53148 11.8424 9.34392C12.0299 9.15636 12.2842 9.05096 12.5494 9.05093C12.8147 9.05089 13.069 9.15621 13.2566 9.34372L17.4998 13.5858L21.7419 9.34254C21.9294 9.15498 22.1837 9.04959 22.4489 9.04955C22.7142 9.04952 22.9685 9.15484 23.1561 9.34235V9.34235Z" fill="black"/>
</svg>