<svg width="10" height="11" viewBox="0 0 10 11" fill="none" xmlns="http://www.w3.org/2000/svg">
<circle cx="5" cy="5" r="4.75" stroke="white" stroke-width="0.5"/>
<path d="M4.70312 6.00879V5.88184C4.70312 5.75163 4.71533 5.64014 4.73975 5.54736C4.76416 5.45296 4.80648 5.36507 4.8667 5.28369C4.92855 5.20231 5.014 5.11605 5.12305 5.0249C5.25 4.91911 5.3501 4.82959 5.42334 4.75635C5.49821 4.68148 5.55192 4.60661 5.58447 4.53174C5.61702 4.45687 5.6333 4.36654 5.6333 4.26074C5.6333 4.09147 5.57878 3.96208 5.46973 3.87256C5.36068 3.78141 5.20687 3.73584 5.0083 3.73584C4.84717 3.73584 4.70394 3.75618 4.57861 3.79688C4.45329 3.83757 4.33285 3.88639 4.21729 3.94336L4.07568 3.61621C4.20915 3.54622 4.354 3.48926 4.51025 3.44531C4.6665 3.40137 4.84066 3.37939 5.03271 3.37939C5.34684 3.37939 5.59017 3.45752 5.7627 3.61377C5.93522 3.76839 6.02148 3.98161 6.02148 4.25342C6.02148 4.40479 5.99707 4.53418 5.94824 4.6416C5.89941 4.7474 5.83024 4.84505 5.74072 4.93457C5.6512 5.02246 5.54541 5.11605 5.42334 5.21533C5.31592 5.30648 5.23372 5.38704 5.17676 5.45703C5.11979 5.52539 5.08073 5.59619 5.05957 5.66943C5.03841 5.74105 5.02783 5.82731 5.02783 5.92822V6.00879H4.70312ZM4.5957 6.74609C4.5957 6.63216 4.62256 6.5516 4.67627 6.50439C4.72998 6.45557 4.79915 6.43115 4.88379 6.43115C4.96354 6.43115 5.03109 6.45557 5.08643 6.50439C5.14339 6.5516 5.17188 6.63216 5.17188 6.74609C5.17188 6.8584 5.14339 6.94059 5.08643 6.99268C5.03109 7.04313 4.96354 7.06836 4.88379 7.06836C4.79915 7.06836 4.72998 7.04313 4.67627 6.99268C4.62256 6.94059 4.5957 6.8584 4.5957 6.74609Z" fill="white"/>
</svg>
