<svg width="390" height="154" viewBox="0 0 390 154" fill="none" xmlns="http://www.w3.org/2000/svg">
<path d="M0 20C0 8.9543 8.95431 0 20 0H370C381.046 0 390 8.95431 390 20V154H0V20Z" fill="white" fill-opacity="0.7"/>
<path d="M204.222 62H184.778C183.244 62 182 63.2437 182 64.7778V84.2222C182 85.7563 183.244 87 184.778 87H204.222C205.756 87 207 85.7563 207 84.2222V64.7778C207 63.2437 205.756 62 204.222 62Z" stroke="white" stroke-width="2" stroke-linecap="round" stroke-linejoin="round"/>
<path d="M189.639 71.7222C190.789 71.7222 191.722 70.7895 191.722 69.6389C191.722 68.4883 190.789 67.5555 189.639 67.5555C188.488 67.5555 187.556 68.4883 187.556 69.6389C187.556 70.7895 188.488 71.7222 189.639 71.7222Z" stroke="white" stroke-width="2" stroke-linecap="round" stroke-linejoin="round"/>
<path d="M207 78.6666L200.056 71.7222L184.778 86.9999" stroke="white" stroke-width="2" stroke-linecap="round" stroke-linejoin="round"/>
</svg>
