<svg width="11" height="15" viewBox="0 0 11 15" fill="none" xmlns="http://www.w3.org/2000/svg">
<g opacity="0.7">
<path d="M9 6.76137H2C1.44772 6.76137 1 7.33458 1 8.04167V12.5227C1 13.2298 1.44772 13.803 2 13.803H9C9.55229 13.803 10 13.2298 10 12.5227V8.04167C10 7.33458 9.55229 6.76137 9 6.76137Z" stroke="white" stroke-linecap="round" stroke-linejoin="round"/>
<path d="M3 6.76136V4.20076C3 3.35186 3.26339 2.53774 3.73223 1.93748C4.20107 1.33722 4.83696 1 5.5 1C6.16304 1 6.79893 1.33722 7.26777 1.93748C7.73661 2.53774 8 3.35186 8 4.20076V6.76136" stroke="white" stroke-linecap="round" stroke-linejoin="round"/>
</g>
</svg>
