<svg width="109" height="106" viewBox="0 0 109 106" fill="none" xmlns="http://www.w3.org/2000/svg">
<mask id="mask0_423_460" style="mask-type:alpha" maskUnits="userSpaceOnUse" x="0" y="0" width="109" height="106">
<path d="M104.87 52.9014C104.87 79.802 82.3977 101.803 54.4348 101.803C26.4719 101.803 4 79.802 4 52.9014C4 26.0009 26.4719 4 54.4348 4C82.3977 4 104.87 26.0009 104.87 52.9014Z" stroke="black" stroke-width="8"/>
</mask>
<g mask="url(#mask0_423_460)">
<rect opacity="0.5" x="-6.1335" y="-4.6001" width="128.803" height="125.737" fill="white"/>
<rect x="80.0777" y="84.8433" width="47" height="31.414" transform="rotate(67.7632 80.0777 84.8433)" fill="url(#paint0_linear_423_460)"/>
<rect x="110.442" y="90.2129" width="31.1522" height="27.2217" transform="rotate(179.387 110.442 90.2129)" fill="url(#paint1_linear_423_460)"/>
<path d="M81.7434 90.0243C81.7434 90.0243 94.0926 88.7772 94.6314 88.7936C95.1702 88.81 85.7246 98.114 84.3415 96.2454C82.9584 94.3768 81.7434 90.0243 81.7434 90.0243Z" fill="#00FC92"/>
</g>
<defs>
<linearGradient id="paint0_linear_423_460" x1="103.578" y1="84.8433" x2="103.578" y2="116.257" gradientUnits="userSpaceOnUse">
<stop stop-color="#00FC92"/>
<stop offset="1" stop-color="#54F8B3" stop-opacity="0"/>
</linearGradient>
<linearGradient id="paint1_linear_423_460" x1="126.018" y1="90.2129" x2="126.018" y2="117.435" gradientUnits="userSpaceOnUse">
<stop stop-color="#00FC92"/>
<stop offset="1" stop-color="#54F8B3" stop-opacity="0"/>
</linearGradient>
</defs>
</svg>
