<svg width="99" height="34" viewBox="0 0 99 34" fill="none" xmlns="http://www.w3.org/2000/svg">
<rect opacity="0.63" width="99" height="34" rx="10" fill="white"/>
<path d="M48.6196 17.1113C48.9775 17.5897 49.4341 17.9856 49.9584 18.2721C50.4827 18.5585 51.0626 18.7289 51.6585 18.7716C52.2545 18.8143 52.8526 18.7283 53.4124 18.5194C53.9722 18.3106 54.4806 17.9839 54.903 17.5613L57.403 15.0613C58.162 14.2755 58.5819 13.2229 58.5724 12.1305C58.5629 11.038 58.1247 9.99292 57.3522 9.22039C56.5797 8.44785 55.5346 8.00965 54.4421 8.00016C53.3496 7.99066 52.2971 8.41064 51.5113 9.16963L50.078 10.5946" stroke="white" stroke-width="2" stroke-linecap="round" stroke-linejoin="round"/>
<path d="M51.953 15.4446C51.5951 14.9662 51.1385 14.5703 50.6142 14.2838C50.0898 13.9974 49.51 13.827 48.9141 13.7843C48.3181 13.7416 47.72 13.8276 47.1602 14.0365C46.6004 14.2453 46.092 14.572 45.6696 14.9946L43.1696 17.4946C42.4106 18.2804 41.9907 19.333 42.0002 20.4254C42.0097 21.5179 42.4479 22.563 43.2204 23.3355C43.9929 24.108 45.038 24.5463 46.1305 24.5557C47.2229 24.5652 48.2755 24.1453 49.0613 23.3863L50.4863 21.9613" stroke="white" stroke-width="2" stroke-linecap="round" stroke-linejoin="round"/>
</svg>
